<svg width="118" height="31" viewBox="0 0 118 31" fill="none" xmlns="http://www.w3.org/2000/svg">
<g clip-path="url(#clip0_7_29)">
<path d="M1.66415 27.1957C0.633975 25.1169 0.1414 22.6302 0.264151 20.1279V9.91442C0.134199 7.39371 0.619329 4.88513 1.64415 2.77857C2.57081 1.15349 4.15415 0.345489 6.39415 0.354568C8.63415 0.363647 10.1508 1.07632 10.9441 2.4926C11.9115 4.24768 12.3835 6.41769 12.2741 8.60709V11.0039H8.13414V8.40282C8.12857 7.71844 8.08511 7.0356 8.00415 6.36012C7.95409 5.87111 7.78922 5.41728 7.53415 5.0664C7.37669 4.88252 7.19388 4.74324 6.99642 4.65672C6.79896 4.57021 6.5908 4.53818 6.38414 4.56253C6.08735 4.50222 5.78412 4.56791 5.51572 4.75066C5.24732 4.93342 5.02679 5.22436 4.88414 5.58389C4.62121 6.54025 4.50548 7.56002 4.54415 8.57985V21.5442C4.49853 22.5708 4.63218 23.5975 4.93415 24.5402C5.07843 24.8803 5.29253 25.1555 5.55013 25.3321C5.80773 25.5087 6.09761 25.579 6.38414 25.5343C6.6657 25.5885 6.95265 25.5203 7.20405 25.3393C7.45544 25.1584 7.65846 24.8739 7.78415 24.5266C8.02604 23.5684 8.13126 22.5561 8.09414 21.5442V18.8206H12.2341V21.1765C12.356 23.3982 11.9225 25.6107 11.0041 27.4544C10.1241 28.9524 8.60415 29.6878 6.44415 29.6878C4.28415 29.6878 2.59415 28.8707 1.66415 27.1957Z" fill="#111111"/>
<path d="M17.9148 0.749496H22.6548L26.6548 29.3473H22.7148L22.0048 23.0286H18.6848L17.8848 29.3065H13.8848L17.9148 0.749496ZM21.5648 19.4334L20.3048 7.93981L19.0548 19.4334H21.5648Z" fill="#111111"/>
<path d="M29.7255 5.05279H26.4855V0.749496H37.2055V5.05279H34.0055V29.3065H29.7155L29.7255 5.05279Z" fill="#111111"/>
<path d="M45.6164 0.749496H53.7464V3.71823H48.5464V13.1555H52.7664V15.9744H48.5464V26.4467H53.7964V29.3065H45.6164V0.749496Z" fill="#444444"/>
<path d="M56.1569 0.749496H58.1569L64.1569 19.7194V0.749496H66.5969V29.3473H64.7269L58.7269 9.84634V29.3065H56.2469L56.1569 0.749496Z" fill="#444444"/>
<path d="M69.8276 0.749496H77.9476V3.71823H72.7476V13.1555H77.0076V15.9744H72.7876V26.4467H78.0076V29.3065H69.8276V0.749496Z" fill="#444444"/>
<path d="M80.3582 0.749493H84.5782C86.2412 0.567253 87.8973 1.19991 89.2482 2.53345C90.2482 3.71822 90.7381 5.65198 90.7381 8.33473C90.7381 11.9662 89.8748 14.1859 88.1481 14.9939L91.1481 29.3065H88.3082L85.5582 15.9064H83.2881V29.3065H80.3582V0.749493ZM84.3582 13.0057C85.3215 13.1326 86.2849 12.7634 87.0582 11.9707C87.3724 11.4643 87.6073 10.8756 87.7483 10.2409C87.8893 9.60628 87.9335 8.93904 87.8781 8.28026C87.8982 7.35636 87.8001 6.43474 87.5882 5.55666C87.5022 5.23289 87.3694 4.9359 87.1976 4.68327C87.0258 4.43064 86.8186 4.22752 86.5882 4.08591C85.939 3.72321 85.2389 3.56044 84.5381 3.60928H83.2482V13.0602L84.3582 13.0057Z" fill="#444444"/>
<path d="M94.6788 27.1957C93.7229 24.9986 93.28 22.4578 93.4088 19.9101V10.3774C93.3743 8.53786 93.5429 6.70166 93.9088 4.93023C94.1976 3.59846 94.8114 2.44072 95.6488 1.64829C96.6598 0.818602 97.8301 0.420186 99.0088 0.504373C99.7713 0.405626 100.54 0.534831 101.262 0.882954C101.984 1.23108 102.642 1.78972 103.189 2.51984C104.148 4.35016 104.602 6.58346 104.469 8.82499V9.88719H101.719V9.00202C101.738 7.94331 101.677 6.88474 101.539 5.84264C101.448 5.17477 101.177 4.57736 100.779 4.16762C100.26 3.75042 99.6603 3.55585 99.0588 3.60928C98.4056 3.53318 97.7563 3.80674 97.2488 4.37189C96.8341 4.90778 96.563 5.6173 96.4788 6.38736C96.3521 7.50912 96.2953 8.64345 96.3088 9.77825V20.3867C96.2294 21.9987 96.4316 23.6134 96.8988 25.0985C97.1702 25.5552 97.5146 25.9214 97.9058 26.1691C98.2969 26.4168 98.7245 26.5394 99.1558 26.5276C99.5871 26.5157 100.011 26.3698 100.394 26.1009C100.778 25.8319 101.111 25.4472 101.369 24.976C101.851 23.4053 102.059 21.7041 101.979 20.0054V17.9899H99.3188V15.171H104.619V29.3065H102.809L102.519 26.0245C102.29 27.1149 101.796 28.0676 101.119 28.7277C100.442 29.3879 99.6206 29.7167 98.7888 29.6606C98.0067 29.7545 97.2199 29.5778 96.5014 29.1468C95.7829 28.7159 95.1559 28.0448 94.6788 27.1957V27.1957Z" fill="#444444"/>
<path d="M110.699 19.2292L106.169 0.749496H108.889L112.099 14.5309L115.259 0.749496H118.009L113.509 19.2292V29.3065H110.709L110.699 19.2292Z" fill="#444444"/>
</g>
<defs>
<clipPath id="clip0_7_29">
<rect width="118" height="31" fill="white"/>
</clipPath>
</defs>
</svg>
