<svg width="106" height="77" viewBox="0 0 106 77" fill="none" xmlns="http://www.w3.org/2000/svg">
<rect width="106" height="77" fill="white"/>
<path d="M86.4047 32.1378C84.115 27.38 80.4277 23.2256 75.7101 20.0887C70.9924 16.9519 65.4093 14.9421 59.517 14.2596C53.6248 13.5771 47.6292 14.2459 42.1277 16.1991C36.6263 18.1524 31.8112 21.322 28.1622 25.392C24.5132 29.462 22.1579 34.2904 21.3308 39.3959C20.5038 44.5013 21.2339 49.7057 23.4485 54.4901C25.6631 59.2746 29.2849 63.4722 33.9527 66.6646C38.6206 69.8569 44.1717 71.9326 50.0526 72.6846C49.2823 70.2772 48.4987 67.6163 47.808 64.7941C49.8172 65.9245 51.932 66.907 54.1301 67.7315V67.7315C54.1301 67.7315 54.2895 70.2196 54.502 72.9956C56.8771 73.0312 59.2499 72.8497 61.5812 72.4542C61.5209 72.1648 61.5209 71.8683 61.5812 71.5788C61.9663 69.4248 63.0289 65.5429 63.2414 63.0432C64.7731 61.8007 66.0726 60.3589 67.0931 58.7697V58.7697L67.0134 59.2765C66.2829 64.1836 64.7555 69.4248 63.8258 70.8761C63.5248 71.3566 63.1543 71.8017 62.7234 72.2008C67.5311 71.2227 72.036 69.3494 75.9258 66.7108C79.8155 64.0723 82.9971 60.7316 85.2499 56.9204C87.5027 53.1092 88.7728 48.9187 88.9722 44.6394C89.1716 40.36 88.2955 36.0943 86.4047 32.1378V32.1378ZM84.4522 36.5035C83.8678 36.9989 82.6592 37.3329 82.46 35.8354C82.2608 34.338 82.2076 33.2897 82.2076 33.2897C82.2076 33.2897 79.6443 29.3387 78.688 29.2927C77.7317 29.2466 70.9448 33.2897 69.1517 35.0521C67.5978 36.5381 67.2923 36.4344 67.2923 39.0492C67.2923 41.019 67.5845 48.4602 67.4251 54.1506L56.6005 56.6502C53.1982 57.4971 49.7382 58.1588 46.2408 58.6315L44.9126 51.9159H44.7267L41.3133 36.7454C41.3133 36.7454 36.253 35.0867 34.3935 34.6375C33.5204 34.3062 32.5563 34.1985 31.6149 34.3271C30.6735 34.4557 29.7942 34.8152 29.0808 35.3632C28.353 35.9158 27.7711 36.598 27.3746 37.3633C26.9781 38.1286 26.7763 38.959 26.7831 39.798C27.0639 40.3333 27.2776 40.8933 27.4206 41.4682C27.487 42.0211 25.8268 41.9635 24.7643 41.9635C23.7018 41.9635 23.5424 40.3048 24.3791 38.3581C25.0319 36.8612 25.841 35.4192 26.7964 34.05C27.515 32.8269 28.4418 31.7047 29.5457 30.721C29.5457 30.721 29.7316 30.3294 31.2059 30.4446C32.6802 30.5597 40.875 30.9399 40.875 30.9399L40.9414 28.3251C49.8486 27.2584 58.832 26.7426 67.8236 26.7815C67.8236 27.4842 67.8236 28.1868 67.8236 28.8895C71.2293 27.5415 74.8966 26.7601 78.6349 26.5857C78.8349 26.5813 79.033 26.6201 79.2115 26.6985C79.39 26.7769 79.5433 26.8925 79.6575 27.0349C80.1091 27.5303 82.8584 30.4906 83.1772 30.9168C84.07 32.0235 84.8818 33.1776 85.6077 34.3725C85.3589 35.1291 84.9686 35.8451 84.4522 36.492V36.5035Z" fill="#FDC305"/>
<path d="M81.6741 29.1626C82.3028 29.8577 82.8512 30.4716 83.0118 30.657C83.9109 31.7699 84.7285 32.9307 85.4597 34.1324C85.2052 34.8683 84.8168 35.5644 84.3093 36.1944C83.7207 36.6926 82.5034 37.0285 82.3028 35.5225C82.1021 34.0165 82.0219 33.0203 82.0219 33.0203C82.0219 33.0203 79.4402 29.0467 78.4771 29.0004C77.514 28.9541 70.6786 33.0203 68.8727 34.7927C67.3077 36.2871 67 36.1829 67 38.8126C67 40.5503 67.2274 46.5163 67.1739 51.8221C69.5951 52.0538 73.1532 52.633 74.2233 54C74.2233 54 73.8354 45.6822 84.6704 50.0381C84.6704 50.0381 85.045 38.6967 100 41.6045C94.9161 36.4352 88.684 32.2041 81.6741 29.1626V29.1626Z" fill="#F06351"/>
<path d="M66.9969 27.4811C67.0491 21.1998 66.4477 14.9276 65.2004 8.74364C65.2004 8.74364 65.008 7.27004 64.0841 8.47159C63.3217 9.90804 62.8029 11.4358 62.5443 13.0058C57.059 12.6948 51.5531 12.8238 46.0942 13.3912C45.042 10.2739 43.2455 8.857 42.3858 9.23107C41.5261 9.60513 41.4234 12.9491 41.4234 12.9491L41 29C49.6138 27.9493 58.3014 27.4417 66.9969 27.4811Z" fill="#F06351"/>
<path d="M66.669 58.8088C66.8483 57.5415 66.9448 55.8596 67 54L55.7586 56.5702C52.2268 57.461 48.6336 58.1612 45 58.6667L46.531 64.5888C46.531 64.7191 46.531 64.8494 46.6276 64.9797C48.7141 66.142 50.9103 67.1523 53.1931 68C56.5292 66.6306 59.7066 64.9927 62.6828 63.1083V63.1794C64.2663 61.908 65.611 60.4337 66.669 58.8088V58.8088Z" fill="#E55645"/>
<path d="M49.0026 23.0142C48.9284 22.8528 50.4864 24.1117 51.0948 24.499C51.7032 24.8864 52 25.1769 52 25.4513C52 25.7256 51.6142 26 51.08 26C50.5458 26 49.7148 25.8063 49.5961 25.5804C49.4774 25.3544 50.4864 25.5804 50.991 25.5804H51.4213C50.5077 24.8535 49.6934 23.9895 49.0026 23.0142Z" fill="black"/>
<path d="M58.508 24.0552C58.508 24.0552 57.2151 25.5769 57.0988 25.6482C56.9824 25.7195 56.879 26.0524 57.3444 25.9929C57.8788 25.9196 58.4061 25.8083 58.9218 25.6601C59.064 25.5887 59.0123 25.4223 58.7666 25.4461C58.521 25.4699 57.8874 25.5055 57.4737 25.5769L58.5727 24.0671C58.5727 24.0671 58.6115 23.9244 58.508 24.0552Z" fill="black"/>
<path d="M54.6 30C55.1398 29.8999 55.5859 29.7276 55.8693 29.5098C56.1953 29.1862 55.8693 29.0636 55.3569 29.0195C54.652 28.9654 53.9246 29.0249 53.3191 29.1862C52.865 29.3676 52.9232 29.5441 53.3191 29.6764C53.7125 29.8063 54.1428 29.915 54.6 30V30Z" fill="black"/>
<path d="M53.8746 32.1942C53.7308 32.4695 53.5353 32.7165 53.2982 32.9226C52.9413 33.2008 52.5026 33.3623 52.0451 33.3839C51.3552 33.4495 50.6653 33.2586 50.1153 32.8498C49.8627 32.7066 49.6379 32.5218 49.4511 32.3035C49.3258 32.1713 49.1717 32.0676 49 32C49 32 49.9398 36.9894 52.2205 37.7906C54.5012 38.5918 54.9273 36.868 54.9899 36.4067C55.0663 35.0251 54.7079 33.6535 53.9624 32.4734C53.9624 32.1093 53.9373 32.352 53.8746 32.1942Z" fill="#F06351"/>
<path d="M52.0178 33C51.4264 32.927 50.8584 32.752 50.348 32.4855C49.8377 32.2189 49.3955 31.8664 49.0483 31.4492C49.0172 31.4194 49 31.3808 49 31.3408C49 31.3008 49.0172 31.2621 49.0483 31.2323C49.0647 31.2179 49.0844 31.2064 49.1061 31.1986C49.1278 31.1908 49.1511 31.1867 49.1746 31.1867C49.1982 31.1867 49.2215 31.1908 49.2432 31.1986C49.2649 31.2064 49.2845 31.2179 49.301 31.2323C49.6137 31.6088 50.0104 31.9283 50.4681 32.1721C50.9258 32.416 51.4353 32.5794 51.9672 32.653C52.388 32.6258 52.7952 32.5134 53.1555 32.3249C53.5158 32.1363 53.8188 31.8771 54.0395 31.5685L54.2165 31.3625L54.3428 31.601C54.3428 31.601 54.823 32.4252 55.6064 32.4686C56.3899 32.512 56.9459 32.0131 57.6661 31.0696C57.6929 31.0351 57.7346 31.0112 57.782 31.003C57.8294 30.9949 57.8786 31.0033 57.9188 31.0263C57.9591 31.0493 57.987 31.0851 57.9965 31.1257C58.0059 31.1664 57.9962 31.2086 57.9694 31.2432C57.127 32.3059 56.3309 32.8156 55.5812 32.7723C55.2914 32.7393 55.0139 32.6511 54.769 32.5141C54.5241 32.3771 54.318 32.1948 54.1659 31.9806C53.9187 32.2769 53.5976 32.5221 53.226 32.6985C52.8544 32.8748 52.4416 32.9778 52.0178 33Z" fill="black"/>
<path d="M55 49C57.7614 49 60 46.9853 60 44.5C60 42.0147 57.7614 40 55 40C52.2386 40 50 42.0147 50 44.5C50 46.9853 52.2386 49 55 49Z" fill="#FDC305"/>
<path d="M61 40.9056L57.038 42.3932L58.4937 36L49 47.083L52.962 45.5955L51.5063 52L61 40.9056ZM51.6456 45.2548L56.9114 39.1114L55.8861 43.6537L58.4177 42.7225L53.1139 48.8772L54.1392 44.335L51.6456 45.2548Z" fill="#111111"/>
<path d="M49.5 44C50.3284 44 51 43.3284 51 42.5C51 41.6716 50.3284 41 49.5 41C48.6716 41 48 41.6716 48 42.5C48 43.3284 48.6716 44 49.5 44Z" fill="#111111"/>
<path d="M58 49C58.5523 49 59 48.5523 59 48C59 47.4477 58.5523 47 58 47C57.4477 47 57 47.4477 57 48C57 48.5523 57.4477 49 58 49Z" fill="#111111"/>
<path d="M59.5 46C59.7761 46 60 45.7761 60 45.5C60 45.2239 59.7761 45 59.5 45C59.2239 45 59 45.2239 59 45.5C59 45.7761 59.2239 46 59.5 46Z" fill="#111111"/>
<path d="M67.4668 29.7614C65.0083 31.5065 62.6928 33.3726 60.5345 35.3485C58.3845 37.3102 55.9583 39.0731 53.3025 40.6032C53.0029 40.0349 51.0825 38.9732 51.0825 38.9732C51.0825 38.9732 46.806 36.6676 44.0004 34.8552C42.4837 33.8606 41.0549 32.7857 39.7239 31.6381L37 31.5201C40.932 36.0425 46.6924 39.3838 53.3434 41C54.5146 40.8499 57.8106 38.9946 60.2757 37.4826C63.1921 35.5296 65.9233 33.4114 68.4474 31.1448C69.1258 30.5099 69.6519 29.7831 70 29C68.4474 29.4075 67.4668 29.7614 67.4668 29.7614Z" fill="#F06351"/>
<path d="M94 9.05719L81.7645 20L80 17.6932L91.7872 5L94 9.05719Z" fill="#FDC305"/>
<path d="M89.8285 25L97 20.2879L95.9903 16L89 21.5146L89.8285 25Z" fill="#FDC305"/>
<path d="M86 61.2515L94.0481 65L98 62.2417L89.2166 59L86 61.2515Z" fill="#FDC305"/>
<path d="M9 11.8723L12.9741 8L25 18.3723L23.4207 21L9 11.8723Z" fill="#FDC305"/>
<path d="M16 23.4944L9.38028 20L6 24.3206L13.2535 27L16 23.4944Z" fill="#FDC305"/>
<path d="M25.0044 65L19 68.8672L22.695 73L28 68.3593L25.0044 65Z" fill="#FDC305"/>
<path d="M40.3923 36.806C40.3923 36.806 35.3389 35.0792 33.482 34.6116C32.6101 34.2667 31.6473 34.1546 30.7072 34.2885C29.7671 34.4223 28.889 34.7966 28.1766 35.367C27.4498 35.9424 26.8686 36.6526 26.4727 37.4493C26.0767 38.246 25.8753 39.1104 25.882 39.9838C26.1624 40.5412 26.3758 41.1241 26.5187 41.7226C26.585 42.2982 24.9271 42.2383 23.866 42.2383C22.8049 42.2383 22.6457 40.5115 23.4813 38.4849C24.1332 36.9266 24.9412 35.4254 25.8953 34C18.6667 37.4056 6 45.2722 6 45.2722C9.62318 45.0746 13.2587 45.1709 16.8628 45.56C23.8262 46.1955 23.4946 51.1601 23.4946 51.1601C25.9438 50.5496 28.4398 50.1047 30.962 49.829C33.7738 49.6611 33.9728 52.3712 33.9728 52.3712L34.6757 57C35.7431 55.9559 36.9203 55.0081 38.1906 54.17C39.8279 52.985 41.9127 52.4255 44 52.6111V52.6111L40.3923 36.806Z" fill="#F06351"/>
</svg>
