<svg width="106" height="77" fill="none" xmlns="http://www.w3.org/2000/svg"><path fill="#fff" d="M0 0h106v77H0z"/><path d="M86.405 32.138c-2.29-4.758-5.977-8.912-10.695-12.05-4.718-3.136-10.3-5.146-16.193-5.828-5.892-.683-11.888-.014-17.39 1.94-5.5 1.952-10.316 5.122-13.965 9.192-3.649 4.07-6.004 8.898-6.831 14.004-.827 5.105-.097 10.31 2.117 15.094 2.215 4.785 5.837 8.982 10.505 12.175 4.668 3.192 10.219 5.268 16.1 6.02a117.927 117.927 0 0 1-2.245-7.89 45.44 45.44 0 0 0 6.322 2.936s.16 2.489.372 5.265a38.87 38.87 0 0 0 7.08-.542 2.14 2.14 0 0 1 0-.875c.384-2.154 1.447-6.036 1.66-8.536a18.145 18.145 0 0 0 3.851-4.273l-.08.506c-.73 4.908-2.258 10.149-3.187 11.6-.301.48-.672.926-1.103 1.325 4.808-.978 9.313-2.852 13.203-5.49 3.89-2.639 7.071-5.98 9.324-9.79 2.253-3.812 3.523-8.002 3.722-12.282.2-4.279-.676-8.545-2.567-12.501Zm-1.953 4.366c-.584.495-1.793.829-1.992-.669-.2-1.497-.252-2.545-.252-2.545s-2.564-3.951-3.52-3.997c-.956-.046-7.743 3.997-9.536 5.76-1.554 1.485-1.86 1.381-1.86 3.996 0 1.97.293 9.411.133 15.102L56.6 56.65a96.29 96.29 0 0 1-10.36 1.98l-1.327-6.715h-.186l-3.414-15.17s-5.06-1.66-6.92-2.108a5.695 5.695 0 0 0-2.778-.31 5.353 5.353 0 0 0-2.534 1.035 5.978 5.978 0 0 0-1.706 2 5.189 5.189 0 0 0-.592 2.435c.28.535.495 1.095.638 1.67.066.553-1.594.495-2.657.495-1.062 0-1.222-1.658-.385-3.605a24.983 24.983 0 0 1 2.417-4.308 13.905 13.905 0 0 1 2.75-3.329s.186-.392 1.66-.276c1.474.115 9.669.495 9.669.495l.066-2.615a218.207 218.207 0 0 1 26.883-1.543v2.108a33.691 33.691 0 0 1 10.81-2.304c.2-.005.399.034.578.113.178.078.331.193.445.336.452.495 3.201 3.456 3.52 3.882a31.808 31.808 0 0 1 2.43 3.456 6.81 6.81 0 0 1-1.155 2.119v.012Z" fill="#FDC305"/><path d="M81.674 29.163c.629.695 1.177 1.309 1.338 1.494a32.006 32.006 0 0 1 2.448 3.475 6.87 6.87 0 0 1-1.15 2.062c-.59.499-1.807.834-2.007-.672-.2-1.505-.281-2.502-.281-2.502S79.44 29.047 78.477 29c-.963-.046-7.798 4.02-9.604 5.793-1.565 1.494-1.873 1.39-1.873 4.02 0 1.737.227 7.703.174 13.01 2.421.23 5.98.81 7.05 2.177 0 0-.389-8.318 10.446-3.962 0 0 .375-11.341 15.33-8.433-5.084-5.17-11.316-9.4-18.326-12.442ZM66.997 27.481A90.896 90.896 0 0 0 65.2 8.744s-.192-1.474-1.116-.272a14.796 14.796 0 0 0-1.54 4.534 102.866 102.866 0 0 0-16.45.385c-1.052-3.117-2.849-4.534-3.708-4.16-.86.374-.963 3.718-.963 3.718L41 29a207.018 207.018 0 0 1 25.997-1.519Z" fill="#F06351"/><path d="M66.669 58.809c.18-1.267.276-2.95.331-4.809l-11.241 2.57c-3.532.891-7.125 1.591-10.759 2.097l1.531 5.922c0 .13 0 .26.097.39A47.396 47.396 0 0 0 53.193 68a61.134 61.134 0 0 0 9.49-4.892v.071a18.733 18.733 0 0 0 3.986-4.37Z" fill="#E55645"/><path d="M49.003 23.014c-.075-.161 1.483 1.098 2.092 1.485.608.387.905.678.905.952 0 .275-.386.549-.92.549s-1.365-.194-1.484-.42c-.119-.226.89 0 1.395 0h.43a12.528 12.528 0 0 1-2.418-2.566ZM58.508 24.055s-1.293 1.522-1.41 1.593c-.116.072-.219.404.246.345a11.244 11.244 0 0 0 1.578-.333c.142-.071.09-.238-.155-.214-.246.024-.88.06-1.293.13l1.099-1.509s.038-.143-.065-.012ZM54.6 30c.54-.1.986-.272 1.27-.49.325-.324 0-.446-.513-.49a6.291 6.291 0 0 0-2.038.166c-.454.182-.396.358 0 .49.393.13.824.239 1.281.324Z" fill="#000"/><path d="M53.875 32.194c-.144.275-.34.523-.577.729-.357.278-.795.44-1.253.46a2.795 2.795 0 0 1-1.93-.533 2.489 2.489 0 0 1-.664-.547A1.254 1.254 0 0 0 49 32s.94 4.99 3.22 5.79c2.281.802 2.707-.922 2.77-1.383a6.67 6.67 0 0 0-1.028-3.934c0-.364-.025-.121-.087-.279Z" fill="#F06351"/><path d="M52.018 33a4.913 4.913 0 0 1-1.67-.514 4.238 4.238 0 0 1-1.3-1.037.15.15 0 0 1-.048-.108.15.15 0 0 1 .106-.142.203.203 0 0 1 .137 0 .18.18 0 0 1 .058.033c.313.377.71.696 1.167.94.458.244.967.407 1.5.481.42-.027.827-.14 1.188-.328.36-.189.663-.448.883-.757l.178-.206.126.239s.48.824 1.263.868c.784.043 1.34-.456 2.06-1.4a.186.186 0 0 1 .116-.066.207.207 0 0 1 .137.023c.04.023.068.06.078.1a.14.14 0 0 1-.028.117c-.842 1.063-1.638 1.573-2.388 1.53a2.169 2.169 0 0 1-.812-.259 1.833 1.833 0 0 1-.603-.533 2.761 2.761 0 0 1-.94.718c-.372.176-.784.279-1.208.301Z" fill="#000"/><path d="M55 49c2.761 0 5-2.015 5-4.5S57.761 40 55 40s-5 2.015-5 4.5 2.239 4.5 5 4.5Z" fill="#FDC305"/><path d="m61 40.906-3.962 1.487L58.494 36 49 47.083l3.962-1.487L51.506 52 61 40.906Zm-9.354 4.349 5.265-6.144-1.025 4.543 2.532-.932-5.304 6.155 1.025-4.542-2.493.92ZM49.5 44a1.5 1.5 0 1 0 0-3 1.5 1.5 0 0 0 0 3ZM58 49a1 1 0 1 0 0-2 1 1 0 0 0 0 2ZM59.5 46a.5.5 0 1 0 0-1 .5.5 0 0 0 0 1Z" fill="#111"/><path d="M67.467 29.761a71.854 71.854 0 0 0-6.932 5.588 41.319 41.319 0 0 1-7.232 5.254c-.3-.568-2.22-1.63-2.22-1.63S46.806 36.668 44 34.855a40.853 40.853 0 0 1-4.276-3.217L37 31.52c3.932 4.522 9.692 7.864 16.343 9.48 1.172-.15 4.468-2.005 6.933-3.517a73.101 73.101 0 0 0 8.171-6.338A6.657 6.657 0 0 0 70 29a32.664 32.664 0 0 0-2.533.761Z" fill="#F06351"/><path d="M94 9.057 81.764 20 80 17.693 91.787 5 94 9.057ZM89.829 25 97 20.288 95.99 16 89 21.515 89.829 25ZM86 61.252 94.048 65 98 62.242 89.217 59 86 61.252ZM9 11.872 12.974 8 25 18.372 23.42 21 9 11.872ZM16 23.494 9.38 20 6 24.32 13.254 27 16 23.494ZM25.004 65 19 68.867 22.695 73 28 68.36 25.004 65Z" fill="#FDC305"/><path d="M40.392 36.806s-5.053-1.727-6.91-2.194a5.471 5.471 0 0 0-2.775-.324 5.23 5.23 0 0 0-2.53 1.079 6.164 6.164 0 0 0-1.704 2.082 5.588 5.588 0 0 0-.591 2.535c.28.557.494 1.14.637 1.739.066.575-1.592.515-2.653.515s-1.22-1.727-.385-3.753A26.337 26.337 0 0 1 25.895 34C18.667 37.406 6 45.272 6 45.272a67.165 67.165 0 0 1 10.863.288c6.963.636 6.632 5.6 6.632 5.6a56.072 56.072 0 0 1 7.467-1.331c2.812-.168 3.01 2.542 3.01 2.542L34.677 57a23.647 23.647 0 0 1 3.515-2.83c1.637-1.185 3.722-1.745 5.809-1.559l-3.608-15.805Z" fill="#F06351"/></svg>