<svg width="118" height="31" fill="none" xmlns="http://www.w3.org/2000/svg"><g clip-path="url(#a)"><path d="M1.664 27.196c-1.03-2.08-1.523-4.566-1.4-7.068V9.914c-.13-2.52.355-5.029 1.38-7.135.927-1.626 2.51-2.434 4.75-2.424 2.24.009 3.757.721 4.55 2.138.967 1.755 1.44 3.925 1.33 6.114v2.397h-4.14V8.403a18.437 18.437 0 0 0-.13-2.043 2.675 2.675 0 0 0-.47-1.294 1.516 1.516 0 0 0-.538-.41 1.173 1.173 0 0 0-.612-.093c-.297-.06-.6.005-.868.188-.269.182-.49.473-.632.833a9.934 9.934 0 0 0-.34 2.996v12.964a8.625 8.625 0 0 0 .39 2.996 1.8 1.8 0 0 0 .616.792c.258.177.548.247.834.202.282.055.569-.014.82-.195.251-.18.454-.465.58-.812.242-.959.347-1.97.31-2.983v-2.723h4.14v2.355c.122 2.222-.312 4.435-1.23 6.278-.88 1.498-2.4 2.234-4.56 2.234-2.16 0-3.85-.817-4.78-2.492ZM17.915.75h4.74l4 28.597h-3.94l-.71-6.318h-3.32l-.8 6.277h-4L17.915.75Zm3.65 18.683L20.305 7.94l-1.25 11.493h2.51ZM29.726 5.053h-3.24V.749h10.72v4.304h-3.2v24.253h-4.29l.01-24.253Z" fill="#111"/><path d="M45.616.75h8.13v2.968h-5.2v9.438h4.22v2.818h-4.22v10.473h5.25v2.86h-8.18V.748ZM56.157.75h2l6 18.97V.75h2.44v28.597h-1.87l-6-19.5v19.46h-2.48L56.157.748ZM69.828.75h8.12v2.968h-5.2v9.438h4.26v2.818h-4.22v10.473h5.22v2.86h-8.18V.748ZM80.358.75h4.22c1.663-.183 3.32.45 4.67 1.783 1 1.185 1.49 3.119 1.49 5.802 0 3.631-.863 5.85-2.59 6.659l3 14.313h-2.84l-2.75-13.4h-2.27v13.4h-2.93V.748Zm4 12.256c.963.127 1.927-.243 2.7-1.035.314-.507.55-1.095.69-1.73a6.551 6.551 0 0 0 .13-1.96 10.66 10.66 0 0 0-.29-2.724 2.86 2.86 0 0 0-.39-.874 2.038 2.038 0 0 0-.61-.597 3.656 3.656 0 0 0-2.05-.477h-1.29v9.451l1.11-.054ZM94.679 27.196c-.956-2.197-1.399-4.738-1.27-7.286v-9.533c-.035-1.84.134-3.675.5-5.447.289-1.332.902-2.49 1.74-3.282C96.659.818 97.83.42 99.009.504a3.973 3.973 0 0 1 2.253.379c.722.348 1.38.907 1.927 1.637.959 1.83 1.413 4.063 1.28 6.305v1.062h-2.75v-.885a21.198 21.198 0 0 0-.18-3.16c-.091-.667-.362-1.265-.76-1.674-.519-.418-1.119-.612-1.72-.559-.653-.076-1.303.198-1.81.763-.415.536-.686 1.245-.77 2.015a27.34 27.34 0 0 0-.17 3.391v10.609a13.57 13.57 0 0 0 .59 4.712c.271.456.616.822 1.007 1.07.39.248.819.37 1.25.359a2.257 2.257 0 0 0 1.238-.427c.384-.27.717-.654.975-1.125.482-1.57.69-3.272.61-4.97V17.99h-2.66V15.17h5.3v14.136h-1.81l-.29-3.282c-.229 1.09-.723 2.043-1.4 2.703-.677.66-1.498.989-2.33.933-.782.093-1.57-.083-2.288-.514-.718-.431-1.345-1.102-1.822-1.951ZM110.699 19.23 106.169.75h2.72l3.21 13.78 3.16-13.78h2.75l-4.5 18.48v10.076h-2.8l-.01-10.077Z" fill="#444"/></g><defs><clipPath id="a"><path fill="#fff" d="M0 0h118v31H0z"/></clipPath></defs></svg>